<?xml version="1.0" standalone="no"?>
<!DOCTYPE svg PUBLIC "-//W3C//DTD SVG 20010904//EN"
 "http://www.w3.org/TR/2001/REC-SVG-20010904/DTD/svg10.dtd">
<svg version="1.0" xmlns="http://www.w3.org/2000/svg"
 width="773.000000pt" height="353.000000pt" viewBox="0 0 773.000000 353.000000"
 preserveAspectRatio="xMidYMid meet">

<g transform="translate(0.000000,353.000000) scale(0.100000,-0.100000)"
 stroke="none">
<path d="M1310 2780 l0 -750 150 0 150 0 0 750 0 750 -150 0 -150 0 0 -750z"/>
<path d="M435 3144 c-135 -14 -325 -65 -325 -88 0 -7 15 -57 34 -111 38 -114
28 -109 150 -76 87 23 225 28 288 11 78 -22 137 -102 138 -186 l0 -42 -72 20
c-99 27 -288 29 -373 4 -119 -36 -189 -86 -233 -170 -24 -46 -27 -61 -27 -156
0 -90 3 -111 23 -148 37 -68 87 -117 152 -146 164 -74 351 -50 488 62 l42 34
0 -61 0 -61 151 0 151 0 -5 378 c-4 400 -8 430 -57 525 -52 99 -132 162 -242
191 -61 16 -216 27 -283 20z m235 -653 l55 -17 -1 -57 c-2 -74 -34 -125 -101
-158 -40 -20 -63 -24 -140 -24 -105 0 -134 14 -166 78 -35 69 5 153 88 182 56
20 197 18 265 -4z"/>
<path d="M2474 3140 c-68 -14 -139 -56 -198 -117 l-56 -57 0 82 0 82 -155 0
-155 0 0 -550 0 -550 155 0 154 0 3 348 c3 317 5 350 22 385 29 59 77 90 147
95 75 6 101 -1 144 -39 60 -53 65 -87 65 -461 l0 -328 155 0 155 0 0 343 c0
310 2 346 19 382 36 79 100 112 200 103 62 -6 108 -39 135 -97 20 -44 21 -64
24 -388 l4 -343 149 0 149 0 0 395 c0 254 -4 413 -11 447 -32 151 -132 244
-288 269 -140 21 -277 -23 -380 -121 -29 -28 -54 -50 -55 -48 -44 76 -104 128
-174 152 -52 19 -157 27 -208 16z"/>
<path d="M4235 3144 c-135 -14 -325 -65 -325 -88 0 -7 15 -57 34 -111 38 -114
28 -109 150 -76 87 23 225 28 288 11 78 -22 137 -102 138 -186 l0 -42 -72 20
c-99 27 -288 29 -373 4 -119 -36 -189 -86 -233 -170 -24 -46 -27 -61 -27 -156
0 -90 3 -111 23 -148 37 -68 87 -117 152 -146 164 -74 351 -50 488 62 l42 34
0 -61 0 -61 151 0 151 0 -5 378 c-4 400 -8 430 -57 525 -52 99 -132 162 -242
191 -61 16 -216 27 -283 20z m235 -653 l55 -17 -1 -57 c-2 -74 -34 -125 -101
-158 -40 -20 -63 -24 -140 -24 -105 0 -134 14 -166 78 -35 69 5 153 88 182 56
20 197 18 265 -4z"/>
<path d="M5651 3139 c-88 -17 -167 -84 -222 -189 l-24 -45 -3 113 -3 112 -154
0 -155 0 0 -550 0 -550 155 0 155 0 0 233 c0 128 5 260 11 292 28 153 131 251
276 263 l63 5 0 163 0 164 -27 -1 c-16 -1 -48 -5 -72 -10z"/>
<path d="M1900 1765 l0 -145 165 0 165 0 0 145 0 145 -165 0 -165 0 0 -145z"/>
<path d="M5090 1765 l0 -145 165 0 165 0 0 145 0 145 -165 0 -165 0 0 -145z"/>
<path d="M6149 1509 c-208 -30 -376 -179 -445 -393 -22 -67 -27 -101 -27 -191
-1 -183 46 -308 160 -427 113 -116 247 -170 428 -171 173 -2 293 43 405 151
l65 62 -36 33 c-21 17 -62 54 -92 80 l-55 48 -46 -35 c-68 -52 -143 -76 -235
-76 -67 0 -86 4 -139 31 -43 21 -71 43 -91 72 -22 34 -51 97 -51 113 0 2 181
4 401 4 l402 0 -6 123 c-4 92 -11 142 -31 203 -66 206 -227 346 -429 373 -87
12 -98 12 -178 0z m179 -274 c55 -23 109 -82 132 -142 33 -90 51 -83 -225 -83
-272 0 -256 -5 -229 72 20 59 77 126 128 149 51 23 143 25 194 4z"/>
<path d="M7623 1510 c-91 -19 -176 -87 -232 -190 l-31 -55 0 118 0 117 -160 0
-160 0 0 -575 0 -575 160 0 160 0 0 258 c0 289 9 353 62 435 52 82 155 137
255 137 l43 0 0 170 0 170 -27 -1 c-16 -1 -47 -5 -70 -9z"/>
<path d="M2880 1500 c-83 -8 -173 -30 -257 -61 -42 -16 -53 -24 -48 -38 46
-147 74 -216 86 -212 142 41 200 51 284 51 142 0 207 -30 246 -115 10 -22 19
-59 19 -81 l0 -42 -77 20 c-57 15 -110 21 -198 21 -228 0 -364 -63 -432 -201
-25 -51 -28 -68 -28 -157 0 -89 3 -106 28 -157 69 -141 240 -215 432 -189 91
13 150 37 222 92 l53 40 0 -61 0 -60 156 0 155 0 -3 398 c-4 371 -5 401 -25
459 -38 112 -106 198 -191 242 -90 46 -270 68 -422 51z m245 -651 c85 -22 95
-29 95 -66 0 -145 -97 -233 -257 -233 -117 0 -183 51 -183 141 0 80 36 129
115 157 39 14 179 15 230 1z"/>
<path d="M1900 919 c0 -408 -3 -587 -11 -602 -21 -42 -51 -57 -111 -57 l-58 0
0 -124 0 -124 73 -6 c194 -18 338 46 399 179 l23 50 3 633 3 632 -161 0 -160
0 0 -581z"/>
<path d="M3704 1483 c3 -10 104 -270 224 -578 l218 -560 145 -3 145 -3 147
378 c81 208 182 469 226 581 l79 202 -167 0 -166 0 -128 -385 c-71 -212 -130
-385 -132 -385 -2 0 -61 173 -132 385 l-128 385 -168 0 c-156 0 -168 -1 -163
-17z"/>
<path d="M5090 925 l0 -575 160 0 160 0 0 575 0 575 -160 0 -160 0 0 -575z"/>
</g>
</svg>
